<?xml version="1.0" encoding="UTF-8"?>
<!DOCTYPE svg PUBLIC "-//W3C//DTD SVG 1.1//EN" "http://www.w3.org/Graphics/SVG/1.1/DTD/svg11.dtd">
<!-- Creator: CorelDRAW -->
<svg xmlns="http://www.w3.org/2000/svg" xml:space="preserve" width="945px" height="249px" version="1.1" shape-rendering="geometricPrecision" text-rendering="geometricPrecision" image-rendering="optimizeQuality" fill-rule="evenodd" clip-rule="evenodd"
viewBox="0 0 942 248"
 xmlns:xlink="http://www.w3.org/1999/xlink"
 xmlns:xodm="http://www.corel.com/coreldraw/odm/2003">
 <g id="Camada_x0020_1">
  <metadata id="CorelCorpID_0Corel-Layer"/>
  <path fill="#030603" d="M57 136c21,0 60,4 51,33 -7,22 -38,20 -51,21l0 -53zm0 -79c13,1 23,0 27,11 -4,10 -13,12 -27,11l0 -22zm76 42c6,-19 13,-28 4,-52 -6,-17 -15,-25 -27,-33 -26,-18 -72,-14 -110,-13l0 246c63,0 103,10 144,-31 35,-35 24,-94 -11,-117zm13 -2c4,3 18,17 19,23l1 -64c32,5 58,28 60,62 4,57 -53,69 -54,70 -3,5 -5,12 -9,19 -6,10 -17,22 -26,29 -6,4 -12,7 -17,11 47,1 85,2 121,-32 88,-82 23,-215 -82,-215l-51 0 5 5c12,9 21,15 29,32 14,30 3,45 2,60z"/>
  <path fill="black" d="M693 37l1 143 40 0 0 -67c4,3 34,58 39,67l40 0c1,-49 1,-99 1,-149l-40 0 0 70c-6,-6 -34,-62 -40,-70l-36 0c-5,0 -4,1 -4,5zm-343 85c36,0 40,-4 40,16 0,18 -6,13 -40,14l0 -30zm0 -60c11,0 30,-3 37,3 4,7 3,19 0,24 -6,5 -28,3 -38,3l0 -30zm-41 119l86 0c24,0 38,-17 35,-53 -1,-9 -6,-18 -6,-20 0,-3 5,-11 6,-18 3,-23 1,-48 -23,-57l-97 0 0 149zm168 -118c12,0 35,-2 39,4 7,34 -12,26 -39,26l0 -30zm-41 118l40 0 0 -58c11,0 10,5 14,12l31 46 43 0c-1,-7 -31,-49 -37,-60 4,-4 12,-4 18,-10 16,-15 15,-55 -2,-69 -13,-10 -30,-10 -49,-10 -15,0 -47,-2 -60,1l0 148zm429 -104c16,-1 8,-1 20,-6 6,-2 4,-1 7,-6 6,-8 7,-3 7,-3 2,5 1,3 0,8 7,3 5,2 9,10 -13,9 -4,34 9,36l0 13c-16,3 -15,0 -20,10 -2,3 -2,5 -4,7 -7,-1 -5,-6 -12,-3 -6,3 -2,6 -5,11 -8,-4 -8,-3 -9,-11 -3,-28 -2,-22 -14,-43l-10 -1c-5,-19 7,-10 -6,-24 6,0 21,8 26,8 3,-4 1,-2 3,-6zm-6 -44c-48,6 -40,51 -40,97 0,52 39,58 82,52 47,-7 38,-52 38,-97 0,-52 -34,-58 -81,-52zm-175 -1c-5,0 -36,-1 -38,0l-2 98c0,9 -2,15 -4,18 -4,5 -28,6 -32,1 -6,-7 -4,-27 -4,-37l0 -80 -40 -1c-1,17 0,35 0,51 0,63 -9,99 60,99 36,0 58,-7 61,-44l0 -106z"/>
  <path fill="black" d="M328 238l0 -36c17,0 38,-2 37,18 0,21 -18,18 -37,18zm-11 8c27,1 57,4 58,-26 1,-29 -32,-28 -57,-26l0 52zm235 0c2,-3 1,1 2,-5l0 -33c5,1 17,16 21,21 15,16 15,17 26,17l0 -53 -10 0 0 38 -32 -32c-5,-5 -5,-6 -15,-5l1 50 7 3zm318 -17c1,26 47,20 53,8 4,-8 1,-15 -4,-18 -9,-6 -42,-6 -36,-15 3,-5 15,-5 22,-3 14,3 3,10 19,6 -3,-12 -9,-15 -23,-15 -36,-1 -39,24 -11,30 11,2 24,0 25,12 -6,5 -16,6 -24,4 -18,-2 -1,-9 -20,-9zm-95 -3c0,-3 8,-20 11,-24l10 24 -22 0zm-5 9l32 0 5 10 11 1c-5,-18 -20,-37 -25,-53 -13,0 -11,-2 -16,8 -2,5 -5,9 -7,14 -4,8 -11,22 -14,30l10 0 5 -11zm-323 -9c1,-4 8,-20 11,-23l10 24 -22 0zm-20 20c12,0 12,-1 15,-11l32 0 6 10 10 0c0,-5 -21,-47 -25,-53l-12 0c-6,14 -22,41 -25,53zm282 -44c0,0 1,0 1,0l3 -9 -57 0 1 9 23 0 0 44 10 0 0 -44 19 0z"/>
 </g>
</svg>
